# xmcd
# 
# Track frame offsets:
#     150
#     17527
#     32957
#     44027
#     55185
#     73372
#     88695
#     103545
#     119267
#     133612
# 
# Disc length: 1955
# 
# Revision: 6
# Processed by: cddbd v1.5.2PL0 Copyright (c) Steve Scherf et al.
# Submitted via: fre:ac v1.0.31
# 
DISCID=8d07a10a
DTITLE=Mamas and Papas - Dreamin' Live
DYEAR=0
DGENRE=Blues
TTITLE0=Creeque Alley
TTITLE1=Monday, Monday
TTITLE2=California Dreamin'
TTITLE3=Go Where You Wanna Go
TTITLE4=Mississippi
TTITLE5=Dedicated To The One I Love
TTITLE6=Straight Shooter
TTITLE7=Sunday Will Never Be The Same
TTITLE8=I Saw Her Again Last Night
TTITLE9=Dream A Little Dream Of Me
EXTD=
EXTT0=
EXTT1=
EXTT2=
EXTT3=
EXTT4=
EXTT5=
EXTT6=
EXTT7=
EXTT8=
EXTT9=
PLAYORDER=
